<?xml version="1.0" encoding="UTF-8" standalone="no"?>
<!DOCTYPE svg PUBLIC "-//W3C//DTD SVG 1.1//EN" "http://www.w3.org/Graphics/SVG/1.1/DTD/svg11.dtd">
<!-- Created with Vectornator (http://vectornator.io/) -->
<svg height="64.0pt" stroke-miterlimit="10" style="fill-rule:nonzero;clip-rule:evenodd;stroke-linecap:round;stroke-linejoin:round;" version="1.1" viewBox="0 0 64 64" width="64.0pt" xml:space="preserve" xmlns="http://www.w3.org/2000/svg" xmlns:xlink="http://www.w3.org/1999/xlink">
<defs>
<path d="M-6.58852 62.7865C-7.26709 62.7865-7.75817 62.5811-8.06174 62.1704C-8.36531 61.7597-8.50817 61.2954-8.49031 60.7775C-8.47246 60.2597-8.28496 59.7954-7.92781 59.3847C-7.57067 58.9739-7.05281 58.7686-6.37423 58.7686C-5.51709 58.7686-4.59744 58.465-3.61529 57.8579C-2.63315 57.2507-1.49921 56.2775-0.213492 54.9382C1.07223 53.5989 2.59902 51.8221 4.36688 49.6078C6.13475 47.3935 8.19726 44.6614 10.5544 41.4114C10.983 40.8756 11.4205 40.6792 11.8669 40.8221C12.3133 40.9649 12.6258 41.3042 12.8044 41.8399C12.983 42.3757 12.8401 42.9649 12.3758 43.6078C9.80441 47.3221 7.56333 50.4114 5.6526 52.8757C3.74188 55.34 2.07223 57.2954 0.643654 58.7418C-0.784923 60.1882-2.07064 61.224-3.21351 61.849C-4.35637 62.474-5.48137 62.7865-6.58852 62.7865ZM29.4116 62.7865C28.0188 62.7865 26.9027 62.5275 26.0634 62.0097C25.2241 61.4918 24.6348 60.8043 24.2955 59.9472C23.9563 59.09 23.8223 58.1347 23.8938 57.0811C23.9652 56.0275 24.1795 54.9293 24.5366 53.7864L28.0723 43.4471C28.3938 42.4114 28.5456 41.5096 28.5277 40.7417C28.5098 39.9739 28.2598 39.3756 27.7777 38.9471C27.2956 38.5185 26.5188 38.3042 25.4473 38.3042C24.3045 38.3042 23.0902 38.6792 21.8045 39.4292C20.5187 40.1792 19.233 41.2239 17.9473 42.5632C16.6616 43.9024 15.4116 45.4917 14.1973 47.331C12.983 49.1703 11.8758 51.215 10.8758 53.465L10.4473 49.3935C11.8044 46.8935 13.1705 44.6882 14.5455 42.7774C15.9205 40.8667 17.3044 39.2685 18.6973 37.9828C20.0902 36.6971 21.492 35.7238 22.9027 35.0631C24.3134 34.4024 25.733 34.072 27.1616 34.072C29.0545 34.072 30.5009 34.5185 31.5009 35.4113C32.5009 36.3042 33.0634 37.5631 33.1884 39.1881C33.3134 40.8131 33.0009 42.7507 32.2509 45.0007L29.1974 54.1078C28.6259 55.8579 28.4473 57.0721 28.6616 57.7507C28.8759 58.4293 29.5188 58.7686 30.5902 58.7686C31.0902 58.7686 31.4474 58.9739 31.6616 59.3847C31.8759 59.7954 31.9474 60.2597 31.8759 60.7775C31.8045 61.2954 31.5634 61.7597 31.1527 62.1704C30.742 62.5811 30.1616 62.7865 29.4116 62.7865ZM5.84011 62.6793C5.26867 62.6793 4.73296 62.5543 4.23296 62.3043C3.73295 62.0543 3.5901 61.59 3.80438 60.9114L19.983 11.0898C21.1259 7.58979 22.4652 5.05406 24.0009 3.48263C25.5366 1.91119 27.3759 1.12547 29.5188 1.12547C30.7688 1.12547 31.8224 1.40226 32.6795 1.95584C33.5367 2.50941 34.2063 3.2862 34.6884 4.2862C35.1706 5.28621 35.4117 6.48264 35.4117 7.8755C35.4117 9.05408 35.2242 10.3934 34.8492 11.8934C34.4742 13.3934 33.9384 14.9737 33.242 16.6345C32.5456 18.2952 31.7241 20.0095 30.7777 21.7774C29.8313 23.5452 28.7598 25.3309 27.5634 27.1345C26.367 28.9381 25.0723 30.7238 23.6795 32.4917C22.2866 34.2595 20.8223 35.9738 19.2866 37.6346C17.7509 39.2953 16.1884 41.7328 14.5455 43.2328L8.35797 61.2865C8.21512 61.7507 7.96511 62.099 7.60797 62.3311C7.25083 62.5632 6.66154 62.6793 5.84011 62.6793ZM16.5544 36.0006C17.8044 34.5363 19.0187 32.9917 20.1973 31.3667C21.3759 29.7417 22.492 28.072 23.5455 26.3577C24.5991 24.6434 25.5723 22.9381 26.4652 21.2416C27.3581 19.5452 28.1259 17.9023 28.7688 16.313C29.4116 14.7237 29.9116 13.2327 30.2688 11.8398C30.6259 10.4469 30.8045 9.2148 30.8045 8.14336C30.8045 7.60765 30.7331 7.14336 30.5902 6.7505C30.4474 6.35764 30.2241 6.063 29.9206 5.86657C29.617 5.67014 29.2509 5.57192 28.8223 5.57192C28.2866 5.57192 27.7866 5.75942 27.3223 6.13443C26.8581 6.50943 26.3938 7.16122 25.9295 8.08979C25.4652 9.01837 24.9652 10.3041 24.4295 11.947L16.5544 36.0006ZM30.0647 62.7865C29.6361 62.7865 29.3593 62.5811 29.2343 62.1704C29.1093 61.7597 29.1182 61.2954 29.2611 60.7775C29.4039 60.2597 29.645 59.7954 29.9843 59.3847C30.3236 58.9739 30.7075 58.7686 31.1361 58.7686C31.7432 58.7686 32.404 58.5811 33.1182 58.2061C33.8325 57.8311 34.5736 57.2329 35.3415 56.4114C36.1093 55.59 36.9129 54.5186 37.7522 53.1971C38.5915 51.8757 39.4576 50.2507 40.3504 48.3221C41.8504 45.2507 43.1986 42.7774 44.3951 40.9024C45.5915 39.0274 46.7165 37.5988 47.7701 36.6167C48.8237 35.6346 49.8326 34.9828 50.7969 34.6613C51.7612 34.3399 52.7076 34.1792 53.6362 34.1792C54.029 34.1792 54.279 34.3845 54.3862 34.7953C54.4933 35.206 54.4933 35.6703 54.3862 36.1881C54.279 36.706 54.0915 37.1703 53.8237 37.581C53.5558 37.9917 53.2255 38.1971 52.8326 38.1971C52.3326 38.1971 51.7969 38.3489 51.2255 38.6524C50.654 38.956 50.029 39.4917 49.3505 40.2596C48.6719 41.0274 47.9219 42.0899 47.1004 43.4471C46.279 44.8042 45.3683 46.5185 44.3683 48.59C42.8683 51.6971 41.4933 54.1882 40.2433 56.0632C38.9933 57.9382 37.7968 59.3579 36.654 60.3222C35.5111 61.2865 34.404 61.9382 33.3325 62.2775C32.2611 62.6168 31.1718 62.7865 30.0647 62.7865ZM72.6006 62.7865C71.2077 62.7865 70.0916 62.5275 69.2523 62.0097C68.413 61.4918 67.8327 60.8043 67.5112 59.9472C67.1898 59.09 67.0648 58.1347 67.1362 57.0811C67.2077 56.0275 67.422 54.9293 67.7791 53.7864L71.2613 43.4471C71.5827 42.4114 71.7345 41.5096 71.7166 40.7417C71.6988 39.9739 71.4488 39.3756 70.9666 38.9471C70.4845 38.5185 69.7077 38.3042 68.6363 38.3042C67.5291 38.3042 66.3595 38.6614 65.1273 39.3756C63.8952 40.0899 62.6452 41.0899 61.3773 42.3757C60.1094 43.6614 58.8862 45.1882 57.7076 46.956C56.5291 48.7239 55.4398 50.6793 54.4398 52.8221L51.7076 61.2865C51.5648 61.7507 51.3058 62.099 50.9308 62.3311C50.5558 62.5632 49.9576 62.6793 49.1362 62.6793C48.5647 62.6793 48.0379 62.5543 47.5558 62.3043C47.0737 62.0543 46.9397 61.59 47.154 60.9114L53.8505 40.1256C54.0648 39.5185 54.0915 39.0453 53.9308 38.706C53.7701 38.3667 53.4219 38.1971 52.8862 38.1971C52.3862 38.1971 52.038 37.9917 51.8415 37.581C51.6451 37.1703 51.5826 36.706 51.654 36.1881C51.7255 35.6703 51.9308 35.206 52.2701 34.7953C52.6094 34.3845 53.0826 34.1792 53.6898 34.1792C54.7969 34.1792 55.6808 34.3578 56.3416 34.7149C57.0023 35.0721 57.4844 35.5542 57.788 36.1613C58.0916 36.7685 58.2701 37.4471 58.3237 38.1971C58.3773 38.9471 58.3505 39.7149 58.2434 40.5006L57.7076 42.2149C58.6719 40.8935 59.663 39.7328 60.6809 38.7328C61.6987 37.7328 62.7344 36.8846 63.788 36.1881C64.8416 35.4917 65.922 34.9649 67.0291 34.6078C68.1363 34.2506 69.2434 34.072 70.3505 34.072C72.2434 34.072 73.6809 34.5185 74.6631 35.4113C75.6452 36.3042 76.2077 37.5631 76.3506 39.1881C76.4934 40.8131 76.1899 42.7507 75.4399 45.0007L72.4398 54.1078C71.8327 55.8579 71.6363 57.0721 71.8506 57.7507C72.0648 58.4293 72.7077 58.7686 73.7791 58.7686C74.2791 58.7686 74.6363 58.9739 74.8506 59.3847C75.0649 59.7954 75.1363 60.2597 75.0649 60.7775C74.9934 61.2954 74.7524 61.7597 74.3416 62.1704C73.9309 62.5811 73.3506 62.7865 72.6006 62.7865Z" id="Fill"/>
<linearGradient gradientTransform="matrix(0 61.661 -61.661 7.9302e-15 33.9465 1.12547)" gradientUnits="userSpaceOnUse" id="LinearGradient" x1="0" x2="1" y1="0" y2="0">
<stop offset="0" stop-color="#aeacfe"/>
<stop offset="1" stop-color="#aeacfe" stop-opacity="0.67"/>
</linearGradient>
<linearGradient gradientTransform="matrix(8.59477 67.195 -67.195 8.59477 41.3745 2.53244)" gradientUnits="userSpaceOnUse" id="LinearGradient_2" x1="0" x2="1" y1="0" y2="0">
<stop offset="0" stop-color="#ffffff" stop-opacity="0.66117"/>
<stop offset="0.633337" stop-color="#ffffff" stop-opacity="0.130509"/>
<stop offset="1" stop-color="#ffffff" stop-opacity="0.590944"/>
</linearGradient>
<filter color-interpolation-filters="sRGB" filterUnits="userSpaceOnUse" height="65.3312" id="Filter" width="88.5582" x="-10.3304" y="-0.7125">
<feGaussianBlur in="SourceGraphic" result="Blur" stdDeviation="0.335"/>
</filter>
</defs>
<clipPath id="ArtboardFrame">
<rect height="64" width="64" x="0" y="0"/>
</clipPath>
<g clip-path="url(#ArtboardFrame)" id="Layer-1">
<clipPath clip-rule="nonzero" id="ClipPath">
<path d="M-0.000527072-0.0321514L63.9995-0.0321514L63.9995 63.9678L-0.000527072 63.9678L-0.000527072-0.0321514Z"/>
</clipPath>
<g clip-path="url(#ClipPath)">
<use fill="url(#LinearGradient)" fill-rule="nonzero" opacity="1" stroke="none" xlink:href="#Fill"/>
<clipPath clip-rule="nonzero" id="ClipPath_2">
<use xlink:href="#Fill"/>
</clipPath>
<g clip-path="url(#ClipPath_2)">
<path d="M29.5092 0.125C27.0923 0.125001 25.0109 1.02077 23.2905 2.78125C21.6286 4.48174 20.2252 7.15291 19.0405 10.7812L8.94672 41.8438C6.88166 44.6657 5.05476 47.1112 3.57172 48.9688C1.71036 51.3002 0.26784 53.004-0.928279 54.25C-2.13761 55.5097-3.22635 56.4309-4.14703 57C-5.01119 57.5342-5.73882 57.7812-6.36578 57.7812C-7.3298 57.7813-8.11994 58.0767-8.67828 58.7188C-9.18257 59.2987-9.46485 59.998-9.49078 60.75C-9.51621 61.4876-9.30769 62.1521-8.86578 62.75C-8.35559 63.4403-7.55431 63.7813-6.58453 63.7812C-5.30202 63.7812-4.02506 63.4211-2.74078 62.7188C-1.49912 62.0397-0.13537 60.9445 1.35297 59.4375C2.23773 58.5417 3.34497 57.1452 4.38422 55.9062L2.85297 60.5938C2.49919 61.7139 2.8082 62.7276 3.79047 63.2188C4.4275 63.5373 5.12391 63.6875 5.85297 63.6875C6.85159 63.6875 7.58112 63.547 8.13422 63.1875C8.69368 62.8238 9.11081 62.248 9.32172 61.5625L12.1967 53.1875C13.2444 50.9385 14.1145 49.3088 15.0405 47.9062C16.2371 46.0938 17.4384 44.5282 18.6655 43.25C19.8923 41.972 21.0921 41.0116 22.2905 40.3125C23.4282 39.6488 24.4906 39.3125 25.4467 39.3125C26.3168 39.3125 26.8785 39.4602 27.1342 39.6875C27.3933 39.9178 27.5286 40.2722 27.5405 40.7812C27.555 41.4055 27.4046 42.1844 27.103 43.1562L23.603 53.4688C23.2085 54.7298 22.96 55.9137 22.8842 57.0312C22.8036 58.2206 22.9544 59.3055 23.353 60.3125C23.771 61.3687 24.5153 62.2112 25.5405 62.8438C26.5567 63.4708 27.8559 63.7812 29.4155 63.7812C29.5542 63.7812 29.653 63.7163 29.7592 63.6875C29.8634 63.7195 29.9567 63.7812 30.0717 63.7812C31.2909 63.7812 32.4741 63.6174 33.6342 63.25C34.8414 62.8677 36.084 62.1068 37.3217 61.0625C38.5301 60.0429 39.7548 58.6005 41.0717 56.625C42.354 54.7016 43.745 52.1679 45.2592 49.0312C46.2213 47.0384 47.12 45.3346 47.9467 43.9688C48.7396 42.6588 49.4691 41.6236 50.103 40.9062C50.6964 40.2348 51.2326 39.7778 51.6967 39.5312C52.1534 39.2886 52.5185 39.1875 52.8217 39.1875C52.844 39.1875 52.8314 39.1575 52.853 39.1562C52.8741 39.1574 52.8624 39.1875 52.8842 39.1875C53.0455 39.1875 53.0236 39.1867 53.0092 39.1562C53.0446 39.231 53.0448 39.4148 52.9155 39.7812L46.228 60.5938C45.8758 61.709 46.1047 62.6861 47.0717 63.1875C47.6962 63.5113 48.4022 63.6875 49.1342 63.6875C50.1272 63.6875 50.883 63.5365 51.4467 63.1875C52.0319 62.8252 52.4524 62.2549 52.6655 61.5625L55.353 53.25C56.3395 51.1361 57.3991 49.2433 58.5405 47.5312C59.6763 45.8276 60.8717 44.3111 62.103 43.0625C63.3115 41.837 64.4843 40.9166 65.6342 40.25C66.7165 39.6226 67.71 39.3125 68.6342 39.3125C69.5043 39.3125 70.066 39.4602 70.3217 39.6875C70.5808 39.9178 70.7161 40.2722 70.728 40.7812C70.7425 41.4055 70.5921 42.1844 70.2905 43.1562L66.853 53.4688C66.4603 54.7246 66.21 55.9137 66.1342 57.0312C66.0537 58.2191 66.1973 59.2827 66.5717 60.2812C66.9714 61.347 67.7 62.2094 68.728 62.8438C69.7442 63.4708 71.0434 63.7812 72.603 63.7812C73.5992 63.7812 74.4577 63.489 75.0717 62.875C75.6341 62.3126 75.9698 61.645 76.0717 60.9062C76.1705 60.1902 76.042 59.5081 75.728 58.9062C75.3366 58.1562 74.6561 57.7812 73.7905 57.7812C73.116 57.7812 72.8852 57.6384 72.8217 57.4375C72.6931 57.0301 72.8432 55.9657 73.3842 54.4062L76.3842 45.3125C77.1713 42.9512 77.5095 40.8743 77.353 39.0938C77.1891 37.2298 76.5321 35.7282 75.353 34.6562C74.1648 33.5761 72.4723 33.0625 70.353 33.0625C69.136 33.0625 67.9288 33.2689 66.728 33.6562C65.5446 34.038 64.3683 34.59 63.228 35.3438C62.0734 36.1069 61.0029 36.993 59.978 38C59.7478 38.2262 59.5197 38.567 59.2905 38.8125C59.2888 38.5872 59.3373 38.3436 59.3217 38.125C59.2588 37.2437 59.0593 36.4438 58.6967 35.7188C58.2986 34.9226 57.6585 34.2961 56.8217 33.8438C56.0007 33.4 54.9635 33.1875 53.6967 33.1875C53.6742 33.1875 53.6872 33.2175 53.6655 33.2188C53.6511 33.2161 53.6496 33.2215 53.6342 33.2188C53.6268 33.2174 53.6418 33.1889 53.6342 33.1875C52.5764 33.1875 51.5236 33.3702 50.478 33.7188C49.3704 34.0879 48.2316 34.825 47.0717 35.9062C45.9456 36.9561 44.775 38.4403 43.5405 40.375C42.3312 42.2701 40.9755 44.7447 39.4467 47.875C38.5547 49.8012 37.722 51.3864 36.9155 52.6562C36.0959 53.9467 35.3454 54.9579 34.6342 55.7188C33.9415 56.4598 33.2436 57.0238 32.6342 57.3438C32.0499 57.6505 31.5615 57.7813 31.1342 57.7812C31.0303 57.7813 30.9446 57.8193 30.853 57.8438C30.7667 57.823 30.6958 57.7813 30.603 57.7812C29.9285 57.7812 29.6977 57.6384 29.6342 57.4375C29.5008 57.0151 29.6269 55.96 30.1342 54.4062L33.1967 45.3125C33.9867 42.9424 34.3331 40.8976 34.1967 39.125C34.0528 37.2539 33.3689 35.7307 32.1655 34.6562C30.9614 33.5812 29.2833 33.0625 27.1655 33.0625C26.1189 33.0625 25.078 33.3001 24.0405 33.625C24.1712 33.4618 24.3179 33.2885 24.4467 33.125C25.8864 31.2977 27.2276 29.4782 28.4155 27.6875C29.6633 25.8065 30.7281 24.0009 31.6655 22.25C32.5604 20.5783 33.3883 18.8532 34.1655 17C34.9173 15.2071 35.4497 13.6444 35.8217 12.1562C36.2144 10.5856 36.4155 9.14465 36.4155 7.875C36.4155 6.33326 36.1528 4.98403 35.603 3.84375C35.052 2.70107 34.23 1.79234 33.1967 1.125C32.1609 0.456021 30.9308 0.125 29.5092 0.125ZM29.5092 2.125C30.5606 2.125 31.4364 2.3618 32.1342 2.8125C32.8598 3.28113 33.3998 3.90858 33.7905 4.71875C34.2004 5.56901 34.4155 6.61758 34.4155 7.875C34.4155 8.9692 34.2394 10.2354 33.8842 11.6562C33.5392 13.0363 33.0058 14.5443 32.2905 16.25C31.5365 18.048 30.7789 19.6997 29.9155 21.3125C29.0092 23.0053 27.9425 24.7316 26.728 26.5625C25.5711 28.3064 24.2912 30.0892 22.8842 31.875C21.5955 33.5107 20.1928 35.1217 18.6655 36.7812C17.8175 37.7026 19.1151 39.0267 20.0717 38.2188C20.1084 38.1878 20.1293 38.1866 20.1655 38.1562C21.4083 37.1147 22.4252 36.4033 23.353 35.9688C24.6467 35.3628 25.8999 35.0625 27.1655 35.0625C28.8284 35.0625 30.0544 35.4432 30.853 36.1562C31.6479 36.866 32.0904 37.8684 32.1967 39.25C32.3104 40.7274 32.0327 42.5546 31.3217 44.6875L28.2592 53.7812C27.6265 55.7187 27.3993 57.1208 27.6967 58.0625C28.0356 59.1357 29.0297 59.6387 30.3217 59.7188C30.438 59.8018 30.4861 59.8721 30.6342 59.9062C30.7881 59.9417 30.9498 59.9446 31.103 59.9062C31.2907 59.8593 31.3835 59.782 31.5092 59.6875C32.1764 59.6284 32.8494 59.473 33.5717 59.0938C34.3976 58.6602 35.2357 57.9881 36.0717 57.0938C36.8769 56.2324 37.7217 55.1062 38.603 53.7188C39.4613 52.3673 40.3416 50.7009 41.2592 48.7188C42.7485 45.6698 44.065 43.26 45.228 41.4375C46.3789 39.6339 47.4591 38.2645 48.4467 37.3438C49.4126 36.4433 50.2984 35.8619 51.103 35.5938C51.9244 35.3199 52.7492 35.1939 53.5717 35.1875C53.5928 35.1897 53.5811 35.2177 53.603 35.2188C53.6265 35.2184 53.6116 35.1889 53.6342 35.1875C53.6628 35.1857 53.6695 35.1908 53.6967 35.1875C54.6577 35.1875 55.3916 35.3275 55.8842 35.5938C56.3688 35.8557 56.6751 36.1756 56.8842 36.5938C57.1254 37.0761 57.2769 37.6226 57.3217 38.25C57.3667 38.8797 57.3238 39.5821 57.228 40.3125C57.2251 40.3346 57.231 40.3528 57.228 40.375L56.728 41.9375C56.3945 43.0165 57.8435 43.7247 58.5092 42.8125C59.4739 41.4905 60.4057 40.3681 61.353 39.4375C62.2852 38.5216 63.3043 37.7244 64.353 37.0312C65.3464 36.3746 66.3486 35.8552 67.353 35.5312C68.3571 35.2073 69.3462 35.0625 70.353 35.0625C72.0123 35.0625 73.1981 35.4473 73.978 36.1562C74.7615 36.8685 75.2309 37.8924 75.353 39.2812C75.483 40.7599 75.217 42.5643 74.5092 44.6875L71.5092 53.7812C70.8387 55.7134 70.5851 57.1152 70.8842 58.0625C71.251 59.224 72.3301 59.7812 73.7905 59.7812C73.9406 59.7813 73.9471 59.7846 73.978 59.8438C74.0942 60.0666 74.1153 60.3406 74.0717 60.6562C74.0316 60.9469 73.8984 61.1733 73.6342 61.4375C73.4224 61.6493 73.0988 61.7812 72.603 61.7812C71.3886 61.7812 70.46 61.5694 69.7905 61.1562C69.1305 60.749 68.6864 60.2329 68.4467 59.5938C68.176 58.8719 68.0724 58.0682 68.1342 57.1562C68.1988 56.2039 68.4176 55.1868 68.7592 54.0938L72.1967 43.75C72.5643 42.5666 72.7482 41.589 72.728 40.7188C72.7039 39.6826 72.3336 38.8092 71.6342 38.1875C70.9427 37.5728 69.9478 37.3125 68.6342 37.3125C67.3339 37.3125 66.005 37.7053 64.6342 38.5C63.3199 39.2619 61.9927 40.3416 60.6655 41.6875C59.3418 43.0298 58.057 44.6001 56.853 46.4062C55.6536 48.2053 54.5683 50.1725 53.5405 52.375L53.5092 52.5L50.7592 60.9688C50.6788 61.2298 50.5412 61.4028 50.3842 61.5C50.2002 61.6139 49.789 61.6875 49.1342 61.6875C48.7167 61.6875 48.3435 61.6108 48.0092 61.4375C48.0294 61.448 48.0478 61.4923 48.1342 61.2188L54.7905 40.4375C55.071 39.6437 55.1158 38.902 54.8217 38.2812C54.4865 37.5735 53.794 37.2396 52.9467 37.2188C52.9062 37.2131 52.9278 37.1576 52.8842 37.1562C52.8457 37.1576 52.8579 37.1834 52.8217 37.1875C52.154 37.1875 51.483 37.3968 50.7592 37.7812C50.0592 38.1531 49.3432 38.7561 48.603 39.5938C47.8797 40.4122 47.1092 41.5019 46.2592 42.9062C45.3974 44.3301 44.4347 46.1098 43.4467 48.1562C41.9695 51.2162 40.6092 53.6625 39.3842 55.5C38.1631 57.3316 37.0538 58.6812 36.0092 59.5625C34.9607 60.4472 33.9444 61.0164 33.0092 61.3125C32.107 61.5982 31.2043 61.7322 30.2592 61.75C30.1992 61.7152 30.1974 61.6752 30.1342 61.6562C29.9918 61.6136 29.8437 61.6023 29.6967 61.625C29.5464 61.6482 29.4355 61.6963 29.3217 61.75C28.1672 61.7356 27.2497 61.5553 26.603 61.1562C25.9352 60.7442 25.4828 60.2064 25.228 59.5625C24.9419 58.8399 24.8232 58.056 24.8842 57.1562C24.9488 56.2039 25.1676 55.1868 25.5092 54.0938L29.0092 43.75C29.3785 42.5614 29.5607 41.589 29.5405 40.7188C29.5164 39.6826 29.1461 38.8092 28.4467 38.1875C27.7552 37.5728 26.7603 37.3125 25.4467 37.3125C24.1104 37.3125 22.7167 37.7305 21.2905 38.5625C19.9217 39.3609 18.5768 40.4699 17.228 41.875C15.9121 43.2457 14.6131 44.8725 13.353 46.7812C12.3624 48.2817 11.4699 49.9819 10.3842 52.3125L10.353 52.4375L7.41547 60.9688C7.32551 61.2593 7.2151 61.4068 7.07172 61.5C6.9116 61.6041 6.49964 61.6875 5.85297 61.6875C5.43025 61.6875 5.02089 61.5839 4.66547 61.4062C4.64493 61.396 4.68281 61.4607 4.75922 61.2188L7.94672 51.3438C8.29678 50.2698 6.87604 49.535 6.19672 50.4375C6.03499 50.6524 5.04488 52.0428 4.88422 52.25C3.0308 54.6404 1.34104 56.6191-0.0845285 58.0625C-1.44706 59.4421-2.62914 60.395-3.67828 60.9688C-4.67971 61.5164-5.65273 61.7813-6.58453 61.7812C-6.95925 61.7812-7.13795 61.7016-7.24078 61.5625C-7.41909 61.3213-7.50035 61.0901-7.49078 60.8125C-7.48074 60.5215-7.38335 60.2671-7.17828 60.0312C-7.0388 59.8708-6.7934 59.7813-6.36578 59.7812C-5.32159 59.7813-4.23963 59.4016-3.08453 58.6875C-2.00393 58.0195-0.807863 56.997 0.509221 55.625C1.75563 54.3267 3.23814 52.5936 5.13422 50.2188C6.65174 48.318 8.52902 45.8472 10.6342 42.9688C10.6968 42.8831 10.7265 42.7884 10.7592 42.6875L20.9155 11.4062C22.0127 8.04592 23.3141 5.60304 24.728 4.15625C26.0741 2.77882 27.6336 2.125 29.5092 2.125ZM30.1655 63.5625C30.1659 63.5622 30.1006 63.6109 30.0092 63.625L30.0092 63.5938C30.0557 63.5714 30.1154 63.5905 30.1655 63.5625ZM28.8217 4.5625C28.0503 4.5625 27.334 4.82905 26.6967 5.34375C26.1007 5.82516 25.5297 6.61527 25.0092 7.65625C24.5138 8.64702 24.0212 9.95901 23.478 11.625L15.603 35.6875C15.2622 36.7287 16.5792 37.4895 17.2905 36.6562C18.6287 35.0887 19.8695 33.5402 21.0092 31.9688C22.1478 30.3988 23.2564 28.7101 24.3842 26.875C25.5842 24.9225 26.5243 23.2933 27.353 21.7188C28.2101 20.0902 28.9931 18.4271 29.6967 16.6875C30.3578 15.0533 30.8604 13.5272 31.228 12.0938C31.6029 10.6315 31.7905 9.32345 31.7905 8.15625C31.7905 7.45652 31.7198 6.8993 31.5405 6.40625C31.3281 5.82232 30.9455 5.35399 30.4467 5.03125C29.9675 4.72116 29.4265 4.5625 28.8217 4.5625ZM28.8217 6.5625C29.0415 6.5625 29.2291 6.61839 29.3842 6.71875C29.5185 6.80564 29.6025 6.92062 29.6655 7.09375C29.7504 7.32728 29.7905 7.66915 29.7905 8.15625C29.7905 9.14299 29.6262 10.2844 29.2905 11.5938C28.9461 12.9366 28.4508 14.3823 27.8217 15.9375C27.1422 17.6174 26.4277 19.2142 25.603 20.7812C24.7977 22.3112 23.8753 23.8948 22.6967 25.8125C21.5943 27.6062 20.4912 29.255 19.3842 30.7812C19.333 30.8518 19.2795 30.9295 19.228 31L25.353 12.25C25.8683 10.6696 26.3765 9.42159 26.8217 8.53125C27.2254 7.72392 27.6097 7.17848 27.9467 6.90625C28.2381 6.67094 28.5218 6.5625 28.8217 6.5625Z" fill="url(#LinearGradient_2)" fill-rule="nonzero" filter="url(#Filter)" opacity="1" stroke="none"/>
</g>
</g>
</g>
</svg>
